HIERARCHY
ROOT root
{
	OFFSET 0.000000 0.000000 0.000000
	CHANNELS 6 Xposition Yposition Zposition Zrotation Yrotation Xrotation
	JOINT lhip
	{
		OFFSET 0.058581 -0.082280 -0.017664
		CHANNELS 3 Zrotation Yrotation Xrotation
		JOINT lknee
		{
			OFFSET 0.043451 -0.386469 0.008037
			CHANNELS 3 Zrotation Yrotation Xrotation
			JOINT lankle
			{
				OFFSET -0.014790 -0.426874 -0.037428
				CHANNELS 3 Zrotation Yrotation Xrotation
				JOINT ltoe
				{
					OFFSET 0.041054 -0.060286 0.122042
					CHANNELS 3 Zrotation Yrotation Xrotation
					End Site
					{
						OFFSET 0.000000 0.000000 0.000000
					}
				}
			}
		}
	}
	JOINT rhip
	{
		OFFSET -0.060310 -0.090513 -0.013543
		CHANNELS 3 Zrotation Yrotation Xrotation
		JOINT rknee
		{
			OFFSET -0.043257 -0.383688 -0.004843
			CHANNELS 3 Zrotation Yrotation Xrotation
			JOINT rankle
			{
				OFFSET 0.019056 -0.420046 -0.034562
				CHANNELS 3 Zrotation Yrotation Xrotation
				JOINT rtoe
				{
					OFFSET -0.034840 -0.062106 0.130323
					CHANNELS 3 Zrotation Yrotation Xrotation
					End Site
					{
						OFFSET 0.000000 0.000000 0.000000
					}
				}
			}
		}
	}
	JOINT lowerback
	{
		OFFSET 0.004439 0.124404 -0.038385
		CHANNELS 3 Zrotation Yrotation Xrotation
		JOINT upperback
		{
			OFFSET 0.004488 0.137956 0.026820
			CHANNELS 3 Zrotation Yrotation Xrotation
			JOINT chest
			{
				OFFSET -0.002265 0.056032 0.002855
				CHANNELS 3 Zrotation Yrotation Xrotation
				JOINT lowerneck
				{
					OFFSET -0.013390 0.211636 -0.033468
					CHANNELS 3 Zrotation Yrotation Xrotation
					JOINT upperneck
					{
						OFFSET 0.010113 0.088937 0.050410
						CHANNELS 3 Zrotation Yrotation Xrotation
						End Site
						{
							OFFSET 0.000000 0.000000 0.000000
						}
					}
				}
				JOINT lclavicle
				{
					OFFSET 0.071702 0.114000 -0.018898
					CHANNELS 3 Zrotation Yrotation Xrotation
					JOINT lshoulder
					{
						OFFSET 0.122921 0.045205 -0.019046
						CHANNELS 3 Zrotation Yrotation Xrotation
						JOINT lelbow
						{
							OFFSET 0.255332 -0.015649 -0.022946
							CHANNELS 3 Zrotation Yrotation Xrotation
							JOINT lwrist
							{
								OFFSET 0.265709 0.012698 -0.007375
								CHANNELS 3 Zrotation Yrotation Xrotation
								End Site
								{
									OFFSET 0.000000 0.000000 0.000000
								}
							}
						}
					}
				}
				JOINT rclavicle
				{
					OFFSET -0.082954 0.112472 -0.023707
					CHANNELS 3 Zrotation Yrotation Xrotation
					JOINT rshoulder
					{
						OFFSET -0.113228 0.046853 -0.008472
						CHANNELS 3 Zrotation Yrotation Xrotation
						JOINT relbow
						{
							OFFSET -0.260127 -0.014369 -0.031269
							CHANNELS 3 Zrotation Yrotation Xrotation
							JOINT rwrist
							{
								OFFSET -0.269108 0.006794 -0.006027
								CHANNELS 3 Zrotation Yrotation Xrotation
								End Site
								{
									OFFSET 0.000000 0.000000 0.000000
								}
							}
						}
					}
				}
			}
		}
	}
}
MOTION
Frames: 8
Frame Time: 0.033333
0.246647 0.439281 0.984113 84.227509 4.331185 100.807537 0.145525 0.659320 -4.596867 -2.522601 -10.890831 -4.401125 7.403455 14.261710 -8.431970 0.000000 -0.000000 0.000000 -20.801394 -3.996007 0.472949 1.527474 8.225104 8.147311 23.770505 -11.288138 18.974238 0.000000 -0.000000 0.000000 0.182936 -3.060586 -0.413258 9.857043 -9.158348 -24.361141 7.308926 -0.815970 10.783561 1.856276 32.649566 9.507161 0.626832 28.326155 -14.613283 33.379606 5.703241 -15.285228 7.948048 -10.580340 -20.327292 11.027756 -3.723051 -9.253560 -17.310522 -13.563063 -27.294096 -21.267315 -16.775307 -17.338063 1.651046 -1.005580 -18.619435 -124.974409 60.374520 -124.679467 15.802974 14.094591 -27.607569 
0.246709 0.439458 0.984011 84.218614 4.361771 100.678246 0.139896 0.857118 -4.474900 -2.491143 -10.911442 -4.371785 7.269990 14.082098 -8.516702 0.000000 -0.000000 0.000000 -20.830352 -4.247445 0.539835 1.610294 8.321585 8.242930 23.386403 -10.977357 19.212440 0.000000 -0.000000 0.000000 0.300548 -2.975839 -0.533775 9.909304 -9.211494 -24.547511 7.169986 -0.591880 11.249481 1.804568 32.697574 9.868789 0.414612 28.296783 -14.981843 33.258906 4.933575 -15.582333 7.966857 -10.016815 -20.153202 11.252225 -3.744067 -8.885801 -16.931023 -13.570706 -27.802260 -21.533667 -16.145517 -17.449554 1.571734 -2.140774 -18.871651 -126.099352 60.651337 -125.593138 15.338355 14.157294 -27.965871 
0.246434 0.439604 0.984044 84.201922 4.370801 100.693582 0.134333 0.860297 -4.525215 -2.498394 -10.815153 -4.314318 7.269253 14.042603 -8.508182 0.000000 -0.000000 0.000000 -20.807803 -4.209129 0.525113 1.584283 8.295226 8.201842 23.242912 -10.888569 19.140623 0.000000 -0.000000 0.000000 0.201953 -3.043621 -0.336304 9.978282 -9.199681 -24.577811 7.136224 -0.546630 11.332900 1.781320 32.833071 9.367449 0.453894 28.354558 -14.911572 33.504275 5.546140 -15.644231 7.763428 -10.354048 -20.184367 11.388710 -3.566536 -8.619389 -17.040959 -13.468715 -27.821963 -21.236112 -16.543875 -17.884389 1.762348 -1.452510 -18.758170 -125.562308 60.705273 -125.035344 15.388740 14.011406 -28.179868 
0.246441 0.439768 0.983997 84.255906 4.327538 100.676540 0.070542 0.795744 -4.474121 -2.457993 -10.876074 -4.388922 7.304011 14.047638 -8.472119 0.000000 -0.000000 0.000000 -20.880089 -4.306568 0.618160 1.617293 8.236369 8.122040 23.266627 -10.945079 19.237872 0.000000 -0.000000 0.000000 0.214650 -2.974422 -0.358799 9.911522 -9.229627 -24.451030 7.123107 -0.547681 11.182685 1.658983 32.882048 9.388665 0.417571 28.359082 -14.869801 33.411722 5.304720 -15.631632 7.987552 -10.093362 -20.427473 11.284751 -3.621270 -9.054222 -17.970079 -13.344959 -26.811656 -21.251914 -16.261575 -17.800465 1.517144 -1.898637 -18.839880 -125.490653 60.660490 -125.112243 16.422510 14.184387 -27.752294 
0.246372 0.439878 0.983829 84.245715 4.376849 100.709923 0.135225 0.861541 -4.527925 -2.496565 -10.753483 -4.376202 7.311186 13.914838 -8.498744 0.000000 -0.000000 0.000000 -20.849059 -4.305718 0.551976 1.642085 8.134219 8.170204 23.243697 -10.883057 19.221420 0.000000 -0.000000 0.000000 0.181176 -3.002903 -0.437466 10.051953 -9.231434 -24.616941 7.121366 -0.640229 11.280561 1.885355 32.967430 9.887235 0.314162 28.340237 -14.642766 33.491856 5.282627 -15.246327 7.846683 -9.852352 -20.462061 11.308149 -3.811296 -8.947095 -18.096411 -13.399094 -26.911201 -21.575327 -16.228778 -17.340238 1.819157 -1.667434 -19.024688 -125.238183 60.708421 -124.628193 16.231939 14.159246 -27.885206 
0.246394 0.439807 0.983858 84.245522 4.386121 100.658529 0.120668 0.820546 -4.419262 -2.426279 -10.877485 -4.481461 7.296903 14.076149 -8.405122 0.000000 -0.000000 0.000000 -20.823155 -4.299848 0.627264 1.637118 8.193389 8.129196 23.232262 -10.950165 19.159856 0.000000 -0.000000 0.000000 0.174701 -2.996954 -0.373669 10.008030 -9.173894 -24.501732 7.068867 -0.563974 11.300751 1.470592 32.685781 9.459857 0.431352 28.421412 -14.909417 33.438828 5.580132 -15.199801 8.011082 -9.936691 -20.326319 11.101298 -4.128443 -8.788488 -17.255755 -13.288690 -27.826051 -21.337074 -16.638089 -17.588616 1.735166 -1.334596 -18.967505 -125.323495 60.805408 -124.815631 15.246829 13.806081 -27.953452 
0.246454 0.439857 0.983810 84.288473 4.401330 100.615954 0.140315 0.802597 -4.376178 -2.417985 -10.905433 -4.460471 7.249827 14.088997 -8.427650 0.000000 -0.000000 0.000000 -20.814543 -4.391094 0.653719 1.635690 8.001813 8.114026 23.247107 -11.023657 19.498522 0.000000 -0.000000 0.000000 0.215231 -2.966034 -0.517381 9.958252 -9.206273 -24.350082 7.063193 -0.575212 11.232755 1.470396 32.603134 9.795525 0.485904 28.436260 -14.937543 33.408540 5.120975 -15.183575 8.140015 -9.614256 -20.315585 11.181322 -3.772663 -8.806890 -16.957672 -13.510805 -27.969569 -21.548432 -16.312549 -17.536315 1.740100 -1.765490 -18.970938 -125.637933 60.823992 -125.096975 15.134009 13.971336 -28.011487 
0.246263 0.439864 0.983793 84.269286 4.447786 100.558535 0.183955 0.907007 -4.429762 -2.454441 -10.928658 -4.282863 7.221489 14.084866 -8.534373 0.000000 -0.000000 0.000000 -20.777036 -4.375182 0.605569 1.668517 7.975716 8.261623 23.236195 -10.972292 19.494447 0.000000 -0.000000 0.000000 0.185973 -2.948583 -0.571823 9.986009 -9.204007 -24.399970 7.120022 -0.587363 11.361748 1.730459 32.697778 10.295076 0.296720 28.224218 -15.016071 33.368434 4.896720 -15.077959 8.234968 -9.443130 -20.424767 11.048855 -3.752874 -8.719074 -17.178964 -13.377385 -27.328855 -21.808029 -15.997370 -17.190348 1.933364 -2.108841 -19.158017 -125.535030 60.617838 -124.860936 15.409400 14.137499 -27.978905 
